<?xml version="1.0" encoding="utf-8"?>
<!-- Generator: Adobe Illustrator 19.0.0, SVG Export Plug-In . SVG Version: 6.00 Build 0)  -->
<svg version="1.1" id="Layer_1" xmlns="http://www.w3.org/2000/svg" xmlns:xlink="http://www.w3.org/1999/xlink" x="0px" y="0px"
	 viewBox="-528 981 185 188" style="enable-background:new -528 981 185 188;" xml:space="preserve">
<style type="text/css">
	.st0{fill:#4E4E4E;}
	.st1{fill:url(#SVGID_1_);}
	.st2{fill:url(#SVGID_2_);}
	.st3{fill:url(#SVGID_3_);}
	.st4{fill:url(#SVGID_4_);}
	.st5{fill:url(#SVGID_5_);}
	.st6{fill:url(#SVGID_6_);}
	.st7{fill:url(#SVGID_7_);}
	.st8{fill:url(#SVGID_8_);}
	.st9{fill:url(#SVGID_9_);}
	.st10{fill:url(#SVGID_10_);}
	.st11{fill:url(#SVGID_11_);}
	.st12{fill:url(#SVGID_12_);}
	.st13{fill:#E6E6E5;}
</style>
<g>
	<path class="st0" d="M-412.1,999c0,2.7-0.7,4.7-2.2,6.2c-1.5,1.4-3.5,2.2-6.2,2.2h-5.1v-16h5.5c2.6,0,4.5,0.7,5.9,2
		C-412.8,994.6-412.1,996.5-412.1,999z M-416.5,999.1c0-1.5-0.3-2.6-0.9-3.3c-0.6-0.7-1.5-1.1-2.6-1.1h-1.3v9h1
		c1.3,0,2.3-0.4,2.9-1.1C-416.9,1001.9-416.5,1000.7-416.5,999.1z"/>
	<path class="st0" d="M-404.9,1007.5c-2.1,0-3.6-0.5-4.8-1.7c-1.1-1.1-1.7-2.7-1.7-4.7c0-2.1,0.5-3.7,1.6-4.8
		c1.1-1.1,2.6-1.7,4.5-1.7c1.9,0,3.3,0.5,4.3,1.5c1,1,1.5,2.4,1.5,4.2v1.9h-7.6c0,0.7,0.3,1.2,0.8,1.6c0.5,0.4,1.1,0.6,1.9,0.6
		c0.7,0,1.4-0.1,2.1-0.2c0.6-0.1,1.3-0.4,2-0.7v3.1c-0.7,0.3-1.4,0.6-2.1,0.7C-403,1007.5-403.9,1007.5-404.9,1007.5z M-405.1,997.6
		c-0.5,0-0.9,0.2-1.3,0.5c-0.3,0.3-0.5,0.8-0.6,1.5h3.7c0-0.6-0.2-1.1-0.5-1.4C-404.1,997.8-404.6,997.6-405.1,997.6z"/>
	<path class="st0" d="M-395.1,1007.3l-4.7-12.4h4.4l2.1,7.3c0,0,0,0.1,0,0.2c0,0.1,0,0.2,0.1,0.3c0,0.1,0,0.2,0.1,0.4
		c0,0.1,0,0.3,0,0.4h0.1c0-0.4,0.1-0.8,0.2-1.2l2.2-7.4h4.4l-4.7,12.4L-395.1,1007.3L-395.1,1007.3z"/>
	<path class="st0" d="M-381.6,1007.3h-4.2v-16h9.4v3.5h-5.2v3.1h4.8v3.5h-4.8L-381.6,1007.3L-381.6,1007.3z"/>
	<path class="st0" d="M-369.5,1007.5c-2.1,0-3.6-0.5-4.8-1.7c-1.1-1.1-1.7-2.7-1.7-4.7c0-2.1,0.5-3.7,1.6-4.8
		c1.1-1.1,2.6-1.7,4.5-1.7c1.9,0,3.3,0.5,4.3,1.5c1,1,1.5,2.4,1.5,4.2v1.9h-7.6c0,0.7,0.3,1.2,0.8,1.6c0.5,0.4,1.1,0.6,1.9,0.6
		c0.7,0,1.4-0.1,2.1-0.2c0.6-0.1,1.3-0.4,2-0.7v3.1c-0.7,0.3-1.4,0.6-2.1,0.7C-367.6,1007.5-368.5,1007.5-369.5,1007.5z
		 M-369.7,997.6c-0.5,0-0.9,0.2-1.3,0.5c-0.3,0.3-0.5,0.8-0.6,1.5h3.7c0-0.6-0.2-1.1-0.5-1.4C-368.7,997.8-369.2,997.6-369.7,997.6z
		"/>
	<path class="st0" d="M-353.5,1003.5c0,1.3-0.5,2.3-1.4,3c-0.9,0.7-2.2,1-3.9,1c-0.9,0-1.7,0-2.4-0.1c-0.7-0.1-1.4-0.3-2.1-0.5v-3.4
		c0.7,0.3,1.4,0.5,2.2,0.7c0.8,0.2,1.5,0.3,2.1,0.3c0.9,0,1.4-0.2,1.4-0.6c0-0.2-0.1-0.4-0.4-0.6c-0.3-0.2-1-0.5-2.2-1
		c-1.1-0.5-1.9-1-2.4-1.6c-0.4-0.6-0.7-1.4-0.7-2.3c0-1.2,0.4-2.1,1.3-2.7c0.9-0.6,2.1-1,3.8-1c0.8,0,1.6,0.1,2.3,0.3
		s1.5,0.4,2.2,0.8l-1.2,2.8c-0.6-0.3-1.2-0.5-1.8-0.7c-0.6-0.2-1.1-0.3-1.5-0.3c-0.7,0-1,0.2-1,0.5c0,0.2,0.1,0.4,0.4,0.5
		c0.2,0.1,0.9,0.5,2.1,0.9c0.9,0.4,1.5,0.7,1.9,1.1s0.7,0.7,0.9,1.2C-353.6,1002.3-353.5,1002.8-353.5,1003.5z"/>
	<path class="st0" d="M-346.4,1004.2c0.6,0,1.3-0.1,2.1-0.4v3.1c-0.6,0.2-1.1,0.4-1.6,0.5c-0.5,0.1-1.1,0.2-1.8,0.2
		c-1.4,0-2.5-0.4-3.1-1.1c-0.6-0.7-0.9-1.8-0.9-3.3v-5.1h-1.5v-1.7l1.9-1.3l1.1-2.6h2.8v2.5h3v3.2h-3v4.8
		C-347.5,1003.8-347.2,1004.2-346.4,1004.2z"/>
	<path class="st0" d="M-420.7,1024.8c0,1.3-0.5,2.4-1.5,3.2c-1,0.8-2.3,1.1-4,1.1s-3.1-0.3-4.2-0.8v-2.3c0.7,0.3,1.4,0.6,2.2,0.8
		c0.8,0.2,1.5,0.3,2.2,0.3c1,0,1.7-0.2,2.2-0.6c0.5-0.4,0.7-0.9,0.7-1.5c0-0.6-0.2-1-0.6-1.4c-0.4-0.4-1.3-0.9-2.6-1.4
		c-1.4-0.6-2.4-1.2-2.9-1.9c-0.6-0.7-0.8-1.6-0.8-2.6c0-1.3,0.4-2.3,1.3-3c0.9-0.7,2.1-1.1,3.6-1.1c1.4,0,2.9,0.3,4.3,1l-0.8,2
		c-1.3-0.6-2.5-0.8-3.6-0.8c-0.8,0-1.4,0.2-1.8,0.5c-0.4,0.3-0.6,0.8-0.6,1.4c0,0.4,0.1,0.7,0.2,1c0.2,0.3,0.4,0.5,0.8,0.8
		c0.4,0.2,1.1,0.6,2,1c1.1,0.5,1.9,0.9,2.4,1.3c0.5,0.4,0.9,0.9,1.1,1.4C-420.8,1023.5-420.7,1024.1-420.7,1024.8z"/>
	<path class="st0" d="M-414.3,1029.1c-1.8,0-3.2-0.5-4.2-1.6s-1.5-2.5-1.5-4.3c0-1.9,0.5-3.3,1.4-4.4c0.9-1.1,2.2-1.6,3.8-1.6
		c1.5,0,2.7,0.5,3.6,1.4c0.9,0.9,1.3,2.2,1.3,3.8v1.3h-7.6c0,1.1,0.3,2,0.9,2.6c0.6,0.6,1.4,0.9,2.4,0.9c0.7,0,1.3-0.1,1.9-0.2
		c0.6-0.1,1.2-0.3,1.9-0.6v2c-0.6,0.3-1.2,0.5-1.8,0.6S-413.5,1029.1-414.3,1029.1z M-414.7,1019.1c-0.8,0-1.4,0.2-1.9,0.7
		c-0.5,0.5-0.7,1.2-0.8,2.1h5.2c0-0.9-0.2-1.7-0.7-2.1C-413.3,1019.3-413.9,1019.1-414.7,1019.1z"/>
	<path class="st0" d="M-401.2,1028.9l-0.5-1.6h-0.1c-0.6,0.7-1.1,1.2-1.7,1.4c-0.6,0.3-1.3,0.4-2.2,0.4c-1.1,0-2-0.3-2.6-0.9
		c-0.6-0.6-0.9-1.5-0.9-2.6c0-1.2,0.4-2.1,1.3-2.7c0.9-0.6,2.2-0.9,4-1l2-0.1v-0.6c0-0.7-0.2-1.3-0.5-1.6c-0.3-0.4-0.9-0.5-1.6-0.5
		c-0.6,0-1.1,0.1-1.7,0.3c-0.5,0.2-1.1,0.4-1.6,0.6l-0.8-1.7c0.6-0.3,1.3-0.6,2-0.7c0.7-0.2,1.4-0.3,2.1-0.3c1.5,0,2.6,0.3,3.3,1
		c0.7,0.6,1.1,1.6,1.1,3v7.7C-399.4,1028.9-401.2,1028.9-401.2,1028.9z M-404.8,1027.2c0.9,0,1.6-0.2,2.1-0.7
		c0.5-0.5,0.8-1.2,0.8-2.1v-1l-1.5,0.1c-1.1,0-2,0.2-2.5,0.6c-0.5,0.3-0.8,0.9-0.8,1.6c0,0.5,0.2,0.9,0.5,1.2
		C-405.9,1027.1-405.4,1027.2-404.8,1027.2z"/>
	<path class="st0" d="M-389.6,1025.6c0,1.1-0.4,2-1.2,2.6c-0.8,0.6-2,0.9-3.5,0.9c-1.5,0-2.7-0.2-3.7-0.7v-2.1
		c1.3,0.6,2.6,0.9,3.8,0.9c1.5,0,2.2-0.5,2.2-1.4c0-0.3-0.1-0.5-0.2-0.7c-0.2-0.2-0.4-0.4-0.8-0.6s-0.9-0.4-1.6-0.7
		c-1.3-0.5-2.2-1-2.7-1.5s-0.7-1.2-0.7-2c0-1,0.4-1.7,1.2-2.3c0.8-0.5,1.9-0.8,3.2-0.8c1.3,0,2.6,0.3,3.8,0.8l-0.8,1.8
		c-1.2-0.5-2.3-0.8-3.1-0.8c-1.3,0-1.9,0.4-1.9,1.1c0,0.4,0.2,0.7,0.5,0.9c0.3,0.2,1.1,0.6,2.2,1c0.9,0.4,1.6,0.7,2.1,1
		c0.4,0.3,0.7,0.7,1,1C-389.7,1024.6-389.6,1025.1-389.6,1025.6z"/>
	<path class="st0" d="M-378.1,1023.1c0,1.9-0.5,3.3-1.4,4.4c-1,1-2.3,1.6-4,1.6c-1.1,0-2-0.2-2.8-0.7c-0.8-0.5-1.5-1.2-1.9-2.1
		c-0.4-0.9-0.7-2-0.7-3.1c0-1.9,0.5-3.3,1.4-4.3c1-1,2.3-1.6,4-1.6c1.7,0,3,0.5,3.9,1.6S-378.1,1021.3-378.1,1023.1z M-386.5,1023.1
		c0,2.6,1,4,2.9,4c1.9,0,2.9-1.3,2.9-4c0-2.6-1-3.9-2.9-3.9c-1,0-1.8,0.3-2.2,1C-386.2,1020.9-386.5,1021.9-386.5,1023.1z"/>
	<path class="st0" d="M-366.5,1028.9h-2.4v-7c0-0.9-0.2-1.5-0.5-2c-0.4-0.4-0.9-0.7-1.7-0.7c-1,0-1.8,0.3-2.3,0.9
		c-0.5,0.6-0.7,1.6-0.7,3.1v5.7h-2.4v-11.4h1.9l0.3,1.5h0.1c0.3-0.5,0.8-1,1.5-1.3c0.6-0.3,1.3-0.4,2.1-0.4c2.7,0,4.1,1.4,4.1,4.2
		V1028.9z"/>
	<path class="st0" d="M-472.4,998.3h6.9v8.6c-1.9,0.6-3.9,1-6.2,1c-2.5,0-4.4-0.7-5.7-2.2c-1.3-1.4-2-3.5-2-6.1c0-2.6,0.7-4.6,2.2-6
		c1.5-1.4,3.5-2.2,6.2-2.2c1,0,2,0.1,2.9,0.3c0.9,0.2,1.7,0.4,2.3,0.7l-1.4,3.4c-1.2-0.6-2.4-0.9-3.8-0.9c-1.3,0-2.2,0.4-2.9,1.2
		c-0.7,0.8-1,2-1,3.5c0,1.5,0.3,2.6,0.9,3.4c0.6,0.8,1.5,1.2,2.7,1.2c0.6,0,1.2-0.1,1.8-0.2v-2.5h-2.9
		C-472.4,1001.7-472.4,998.3-472.4,998.3z"/>
	<path class="st0" d="M-450,999.3c0,2.7-0.7,4.7-2.2,6.2s-3.5,2.2-6.2,2.2h-5.2v-16h5.6c2.6,0,4.6,0.7,6,2S-450,996.9-450,999.3z
		 M-454.5,999.5c0-1.5-0.3-2.6-0.9-3.3c-0.6-0.7-1.5-1.1-2.6-1.1h-1.3v9h1c1.3,0,2.3-0.4,2.9-1.1
		C-454.8,1002.2-454.5,1001.1-454.5,999.5z"/>
	<path class="st0" d="M-442,998.3h6.9v8.6c-1.9,0.6-3.9,1-6.2,1c-2.5,0-4.4-0.7-5.7-2.2c-1.3-1.4-2-3.5-2-6.1c0-2.6,0.7-4.6,2.2-6
		c1.5-1.4,3.5-2.2,6.2-2.2c1,0,2,0.1,2.9,0.3c0.9,0.2,1.7,0.4,2.3,0.7l-1.4,3.4c-1.2-0.6-2.4-0.9-3.8-0.9c-1.3,0-2.2,0.4-2.9,1.2
		c-0.7,0.8-1,2-1,3.5c0,1.5,0.3,2.6,0.9,3.4c0.6,0.8,1.5,1.2,2.7,1.2c0.6,0,1.2-0.1,1.8-0.2v-2.5h-2.9
		C-442,1001.7-442,998.3-442,998.3z"/>
	
		<radialGradient id="SVGID_1_" cx="-306.3313" cy="244.1893" r="20.1129" gradientTransform="matrix(0.498 0 0 -0.498 -357.8229 1152.4388)" gradientUnits="userSpaceOnUse">
		<stop  offset="0" style="stop-color:#FFCF4F"/>
		<stop  offset="1" style="stop-color:#F4C236"/>
	</radialGradient>
	<path class="st1" d="M-519.1,1042h6.8c1.6,0,3.6-1.1,4.4-2.5l5.7-9.5c0.7-1.4,0.7-3.4-0.1-4.7l-3.4-5.6L-519.1,1042z"/>
	
		<radialGradient id="SVGID_2_" cx="-318.3831" cy="254.4032" r="27.6571" gradientTransform="matrix(0.498 0 0 -0.498 -357.8229 1152.4388)" gradientUnits="userSpaceOnUse">
		<stop  offset="0" style="stop-color:#08A960"/>
		<stop  offset="1" style="stop-color:#07914B"/>
	</radialGradient>
	<path class="st2" d="M-511.8,1014.5l-15.1,25.2c-0.6,1.2,0,2.2,1.5,2.2h6.3l13.4-22.3l-6.1-10.2
		C-511,1010.9-511,1013.1-511.8,1014.5"/>
	
		<radialGradient id="SVGID_3_" cx="-308.9324" cy="294.0849" r="40.5382" gradientTransform="matrix(0.498 0 0 -0.498 -357.8229 1152.4388)" gradientUnits="userSpaceOnUse">
		<stop  offset="0" style="stop-color:#567FC0"/>
		<stop  offset="1" style="stop-color:#557FC0"/>
	</radialGradient>
	<path class="st3" d="M-525.4,982c-1.6,0-2.3,1.1-1.4,2.5l24.5,40.7c0.8,1.3,0.8,3.3,0.1,4.7l6-9.9l-22.9-38H-525.4z"/>
	
		<radialGradient id="SVGID_4_" cx="-296.8672" cy="304.0488" r="33.0576" gradientTransform="matrix(0.498 0 0 -0.498 -357.8229 1152.4388)" gradientUnits="userSpaceOnUse">
		<stop  offset="0" style="stop-color:#E14C40"/>
		<stop  offset="1" style="stop-color:#CD392D"/>
	</radialGradient>
	<path class="st4" d="M-519.1,982l22.9,38l3.3-5.5c0.8-1.4,0.8-3.6,0-5l-15-25c-0.8-1.4-2.8-2.5-4.4-2.5H-519.1z"/>
</g>
<g>
	
		<radialGradient id="SVGID_5_" cx="-306.3313" cy="117.6833" r="20.1129" gradientTransform="matrix(0.498 0 0 -0.498 -357.8229 1152.4388)" gradientUnits="userSpaceOnUse">
		<stop  offset="0" style="stop-color:#CCCCCC"/>
		<stop  offset="1" style="stop-color:#C0C0C0"/>
	</radialGradient>
	<path class="st5" d="M-519.1,1105h6.8c1.6,0,3.6-1.1,4.4-2.5l5.7-9.5c0.7-1.4,0.7-3.4-0.1-4.7l-3.4-5.6L-519.1,1105z"/>
	
		<radialGradient id="SVGID_6_" cx="-318.3831" cy="127.8972" r="27.6571" gradientTransform="matrix(0.498 0 0 -0.498 -357.8229 1152.4388)" gradientUnits="userSpaceOnUse">
		<stop  offset="0" style="stop-color:#A0A0A0"/>
		<stop  offset="1" style="stop-color:#7B7B7B"/>
	</radialGradient>
	<path class="st6" d="M-511.8,1077.5l-15.1,25.2c-0.6,1.2,0,2.2,1.5,2.2h6.3l13.4-22.3l-6.1-10.2
		C-511,1073.9-511,1076.1-511.8,1077.5"/>
	
		<radialGradient id="SVGID_7_" cx="-308.9323" cy="167.5789" r="40.5381" gradientTransform="matrix(0.498 0 0 -0.498 -357.8229 1152.4388)" gradientUnits="userSpaceOnUse">
		<stop  offset="0" style="stop-color:#848484"/>
		<stop  offset="1" style="stop-color:#838383"/>
	</radialGradient>
	<path class="st7" d="M-525.4,1045c-1.6,0-2.3,1.1-1.4,2.5l24.5,40.7c0.8,1.3,0.8,3.3,0.1,4.7l6-9.9l-22.9-38H-525.4z"/>
	
		<radialGradient id="SVGID_8_" cx="-296.8672" cy="177.5428" r="33.0576" gradientTransform="matrix(0.498 0 0 -0.498 -357.8229 1152.4388)" gradientUnits="userSpaceOnUse">
		<stop  offset="0" style="stop-color:#626262"/>
		<stop  offset="1" style="stop-color:#474747"/>
	</radialGradient>
	<path class="st8" d="M-519.1,1045l22.9,38l3.3-5.5c0.8-1.4,0.8-3.6,0-5l-15-25c-0.8-1.4-2.8-2.5-4.4-2.5H-519.1z"/>
</g>
<g>
	
		<radialGradient id="SVGID_9_" cx="-306.014" cy="-8.8227" r="20.1129" gradientTransform="matrix(0.498 0 0 -0.498 -357.8229 1152.4388)" gradientUnits="userSpaceOnUse">
		<stop  offset="0" style="stop-color:#FFCF4F"/>
		<stop  offset="1" style="stop-color:#F4C236"/>
	</radialGradient>
	<path class="st9" d="M-518.9,1168h6.8c1.6,0,3.6-1.1,4.4-2.5l5.7-9.5c0.7-1.4,0.7-3.4-0.1-4.7l-3.4-5.6L-518.9,1168z"/>
	
		<radialGradient id="SVGID_10_" cx="-318.0654" cy="1.3911" r="27.657" gradientTransform="matrix(0.498 0 0 -0.498 -357.8229 1152.4388)" gradientUnits="userSpaceOnUse">
		<stop  offset="0" style="stop-color:#08A960"/>
		<stop  offset="1" style="stop-color:#07914B"/>
	</radialGradient>
	<path class="st10" d="M-511.6,1140.5l-15.1,25.2c-0.6,1.2,0,2.2,1.5,2.2h6.3l13.4-22.3l-6.1-10.2
		C-510.8,1136.9-510.8,1139.1-511.6,1140.5"/>
	
		<radialGradient id="SVGID_11_" cx="-308.615" cy="41.0729" r="40.5381" gradientTransform="matrix(0.498 0 0 -0.498 -357.8229 1152.4388)" gradientUnits="userSpaceOnUse">
		<stop  offset="0" style="stop-color:#567FC0"/>
		<stop  offset="1" style="stop-color:#557FC0"/>
	</radialGradient>
	<path class="st11" d="M-525.2,1108c-1.6,0-2.3,1.1-1.4,2.5l24.5,40.7c0.8,1.3,0.8,3.3,0.1,4.7l6-9.9l-22.9-38H-525.2z"/>
	
		<radialGradient id="SVGID_12_" cx="-296.5499" cy="51.0367" r="33.0576" gradientTransform="matrix(0.498 0 0 -0.498 -357.8229 1152.4388)" gradientUnits="userSpaceOnUse">
		<stop  offset="0" style="stop-color:#E14C40"/>
		<stop  offset="1" style="stop-color:#CD392D"/>
	</radialGradient>
	<path class="st12" d="M-518.9,1108l22.9,38l3.3-5.5c0.8-1.4,0.8-3.6,0-5l-15-25c-0.8-1.4-2.8-2.5-4.4-2.5H-518.9z"/>
</g>
<path class="st0" d="M-468.1,1028.9h-10.4v-2.2l3.7-3.8c1.1-1.1,1.8-1.9,2.2-2.4c0.3-0.4,0.6-0.8,0.7-1.2c0.1-0.4,0.2-0.8,0.2-1.2
	c0-0.6-0.2-1-0.5-1.3c-0.3-0.3-0.8-0.4-1.3-0.4c-0.6,0-1.1,0.1-1.7,0.4c-0.5,0.3-1.1,0.6-1.7,1.1l-1.7-2c0.7-0.6,1.3-1.1,1.8-1.3
	s1-0.5,1.6-0.6c0.6-0.1,1.2-0.2,1.9-0.2c0.9,0,1.8,0.2,2.5,0.5c0.7,0.3,1.3,0.8,1.7,1.4c0.4,0.6,0.6,1.3,0.6,2.1
	c0,0.7-0.1,1.3-0.4,1.9c-0.2,0.6-0.6,1.2-1.1,1.8c-0.5,0.6-1.4,1.5-2.7,2.7l-1.9,1.8v0.1h6.5V1028.9z"/>
<path class="st0" d="M-457.1,1021.4c0,2.6-0.4,4.5-1.3,5.8s-2.2,1.9-3.9,1.9c-1.7,0-3-0.6-3.9-1.9c-0.9-1.3-1.3-3.2-1.3-5.7
	c0-2.6,0.4-4.6,1.3-5.8c0.8-1.2,2.2-1.9,3.9-1.9c1.7,0,3,0.7,3.9,2C-457.6,1017-457.1,1018.9-457.1,1021.4z M-464.4,1021.4
	c0,1.8,0.2,3.1,0.5,3.9c0.3,0.8,0.8,1.2,1.6,1.2c0.7,0,1.3-0.4,1.6-1.2c0.3-0.8,0.5-2.1,0.5-3.9c0-1.8-0.2-3.1-0.5-3.9
	c-0.3-0.8-0.9-1.2-1.6-1.2c-0.7,0-1.3,0.4-1.6,1.2C-464.2,1018.3-464.4,1019.6-464.4,1021.4z"/>
<path class="st0" d="M-448.6,1028.9h-3.1v-8.6l0-1.4l0.1-1.5c-0.5,0.5-0.9,0.9-1.1,1l-1.7,1.4l-1.5-1.9l4.8-3.8h2.6V1028.9z"/>
<path class="st0" d="M-445.4,1022.6c0-2.9,0.6-5.1,1.9-6.6c1.2-1.4,3.1-2.2,5.6-2.2c0.8,0,1.5,0.1,2,0.2v2.5
	c-0.6-0.1-1.2-0.2-1.8-0.2c-1.1,0-2,0.2-2.6,0.5s-1.2,0.8-1.5,1.4c-0.3,0.6-0.5,1.5-0.6,2.7h0.1c0.7-1.2,1.7-1.7,3.2-1.7
	c1.3,0,2.4,0.4,3.1,1.3c0.8,0.8,1.1,2,1.1,3.5c0,1.6-0.4,2.8-1.3,3.8c-0.9,0.9-2.1,1.4-3.7,1.4c-1.1,0-2.1-0.3-2.9-0.8
	c-0.8-0.5-1.4-1.3-1.9-2.2C-445.2,1025.1-445.4,1023.9-445.4,1022.6z M-440,1026.6c0.7,0,1.2-0.2,1.5-0.7c0.4-0.5,0.5-1.1,0.5-1.9
	c0-0.7-0.2-1.3-0.5-1.7c-0.3-0.4-0.8-0.6-1.5-0.6c-0.6,0-1.2,0.2-1.6,0.6c-0.5,0.4-0.7,0.9-0.7,1.4c0,0.8,0.2,1.5,0.6,2
	C-441.2,1026.3-440.7,1026.6-440,1026.6z"/>
<path class="st0" d="M-412.1,1062.3c0,2.7-0.7,4.7-2.2,6.2c-1.5,1.4-3.5,2.2-6.2,2.2h-5.1v-16h5.5c2.6,0,4.5,0.7,5.9,2
	C-412.8,1057.9-412.1,1059.8-412.1,1062.3z M-416.5,1062.4c0-1.5-0.3-2.6-0.9-3.3c-0.6-0.7-1.5-1.1-2.6-1.1h-1.3v9h1
	c1.3,0,2.3-0.4,2.9-1.1C-416.9,1065.2-416.5,1064-416.5,1062.4z"/>
<path class="st0" d="M-404.9,1070.8c-2.1,0-3.6-0.5-4.8-1.7c-1.1-1.1-1.7-2.7-1.7-4.7c0-2.1,0.5-3.7,1.6-4.8
	c1.1-1.1,2.6-1.7,4.5-1.7c1.9,0,3.3,0.5,4.3,1.5c1,1,1.5,2.4,1.5,4.2v1.9h-7.6c0,0.7,0.3,1.2,0.8,1.6c0.5,0.4,1.1,0.6,1.9,0.6
	c0.7,0,1.4-0.1,2.1-0.2c0.6-0.1,1.3-0.4,2-0.7v3.1c-0.7,0.3-1.4,0.6-2.1,0.7C-403,1070.8-403.9,1070.8-404.9,1070.8z M-405.1,1060.9
	c-0.5,0-0.9,0.2-1.3,0.5c-0.3,0.3-0.5,0.8-0.6,1.5h3.7c0-0.6-0.2-1.1-0.5-1.4C-404.1,1061.1-404.6,1060.9-405.1,1060.9z"/>
<path class="st0" d="M-395.1,1070.6l-4.7-12.4h4.4l2.1,7.3c0,0,0,0.1,0,0.2c0,0.1,0,0.2,0.1,0.3c0,0.1,0,0.2,0.1,0.4
	c0,0.1,0,0.3,0,0.4h0.1c0-0.4,0.1-0.8,0.2-1.2l2.2-7.4h4.4l-4.7,12.4L-395.1,1070.6L-395.1,1070.6z"/>
<path class="st0" d="M-381.6,1070.6h-4.2v-16h9.4v3.5h-5.2v3.1h4.8v3.5h-4.8L-381.6,1070.6L-381.6,1070.6z"/>
<path class="st0" d="M-369.5,1070.8c-2.1,0-3.6-0.5-4.8-1.7c-1.1-1.1-1.7-2.7-1.7-4.7c0-2.1,0.5-3.7,1.6-4.8
	c1.1-1.1,2.6-1.7,4.5-1.7c1.9,0,3.3,0.5,4.3,1.5c1,1,1.5,2.4,1.5,4.2v1.9h-7.6c0,0.7,0.3,1.2,0.8,1.6c0.5,0.4,1.1,0.6,1.9,0.6
	c0.7,0,1.4-0.1,2.1-0.2c0.6-0.1,1.3-0.4,2-0.7v3.1c-0.7,0.3-1.4,0.6-2.1,0.7C-367.6,1070.8-368.5,1070.8-369.5,1070.8z
	 M-369.7,1060.9c-0.5,0-0.9,0.2-1.3,0.5c-0.3,0.3-0.5,0.8-0.6,1.5h3.7c0-0.6-0.2-1.1-0.5-1.4
	C-368.7,1061.1-369.2,1060.9-369.7,1060.9z"/>
<path class="st0" d="M-353.5,1066.8c0,1.3-0.5,2.3-1.4,3c-0.9,0.7-2.2,1-3.9,1c-0.9,0-1.7,0-2.4-0.1c-0.7-0.1-1.4-0.3-2.1-0.5v-3.4
	c0.7,0.3,1.4,0.5,2.2,0.7c0.8,0.2,1.5,0.3,2.1,0.3c0.9,0,1.4-0.2,1.4-0.6c0-0.2-0.1-0.4-0.4-0.6c-0.3-0.2-1-0.5-2.2-1
	c-1.1-0.5-1.9-1-2.4-1.6c-0.4-0.6-0.7-1.4-0.7-2.3c0-1.2,0.4-2.1,1.3-2.7c0.9-0.6,2.1-1,3.8-1c0.8,0,1.6,0.1,2.3,0.3
	c0.7,0.2,1.5,0.4,2.2,0.8l-1.2,2.8c-0.6-0.3-1.2-0.5-1.8-0.7c-0.6-0.2-1.1-0.3-1.5-0.3c-0.7,0-1,0.2-1,0.5c0,0.2,0.1,0.4,0.4,0.5
	c0.2,0.2,0.9,0.5,2.1,0.9c0.9,0.4,1.5,0.7,1.9,1.1c0.4,0.3,0.7,0.7,0.9,1.2C-353.6,1065.6-353.5,1066.1-353.5,1066.8z"/>
<path class="st0" d="M-346.4,1067.5c0.6,0,1.3-0.1,2.1-0.4v3.1c-0.6,0.2-1.1,0.4-1.6,0.5c-0.5,0.1-1.1,0.2-1.8,0.2
	c-1.4,0-2.5-0.4-3.1-1.1c-0.6-0.7-0.9-1.8-0.9-3.3v-5.1h-1.5v-1.7l1.9-1.3l1.1-2.6h2.8v2.5h3v3.2h-3v4.8
	C-347.5,1067.1-347.2,1067.5-346.4,1067.5z"/>
<path class="st0" d="M-420.7,1088.1c0,1.3-0.5,2.4-1.5,3.2c-1,0.8-2.3,1.1-4,1.1s-3.1-0.3-4.2-0.8v-2.3c0.7,0.3,1.4,0.6,2.2,0.8
	c0.8,0.2,1.5,0.3,2.2,0.3c1,0,1.7-0.2,2.2-0.6c0.5-0.4,0.7-0.9,0.7-1.5c0-0.6-0.2-1-0.6-1.4c-0.4-0.4-1.3-0.9-2.6-1.4
	c-1.4-0.6-2.4-1.2-2.9-1.9c-0.6-0.7-0.8-1.6-0.8-2.6c0-1.3,0.4-2.3,1.3-3c0.9-0.7,2.1-1.1,3.6-1.1c1.4,0,2.9,0.3,4.3,1l-0.8,2
	c-1.3-0.6-2.5-0.8-3.6-0.8c-0.8,0-1.4,0.2-1.8,0.5c-0.4,0.3-0.6,0.8-0.6,1.4c0,0.4,0.1,0.7,0.2,1c0.2,0.3,0.4,0.5,0.8,0.8
	c0.4,0.2,1.1,0.6,2,1c1.1,0.5,1.9,0.9,2.4,1.3c0.5,0.4,0.9,0.9,1.1,1.4C-420.8,1086.8-420.7,1087.4-420.7,1088.1z"/>
<path class="st0" d="M-414.3,1092.4c-1.8,0-3.2-0.5-4.2-1.6c-1-1-1.5-2.5-1.5-4.3c0-1.9,0.5-3.3,1.4-4.4c0.9-1.1,2.2-1.6,3.8-1.6
	c1.5,0,2.7,0.5,3.6,1.4c0.9,0.9,1.3,2.2,1.3,3.8v1.3h-7.6c0,1.1,0.3,2,0.9,2.6c0.6,0.6,1.4,0.9,2.4,0.9c0.7,0,1.3-0.1,1.9-0.2
	c0.6-0.1,1.2-0.3,1.9-0.6v2c-0.6,0.3-1.2,0.5-1.8,0.6C-412.8,1092.3-413.5,1092.4-414.3,1092.4z M-414.7,1082.4
	c-0.8,0-1.4,0.2-1.9,0.7c-0.5,0.5-0.7,1.2-0.8,2.1h5.2c0-0.9-0.2-1.7-0.7-2.1S-413.9,1082.4-414.7,1082.4z"/>
<path class="st0" d="M-401.2,1092.2l-0.5-1.6h-0.1c-0.6,0.7-1.1,1.2-1.7,1.4c-0.6,0.3-1.3,0.4-2.2,0.4c-1.1,0-2-0.3-2.6-0.9
	c-0.6-0.6-0.9-1.5-0.9-2.6c0-1.2,0.4-2.1,1.3-2.7c0.9-0.6,2.2-0.9,4-1l2-0.1v-0.6c0-0.7-0.2-1.3-0.5-1.6c-0.3-0.4-0.9-0.5-1.6-0.5
	c-0.6,0-1.1,0.1-1.7,0.3c-0.5,0.2-1.1,0.4-1.6,0.6l-0.8-1.7c0.6-0.3,1.3-0.6,2-0.7c0.7-0.2,1.4-0.3,2.1-0.3c1.5,0,2.6,0.3,3.3,1
	c0.7,0.6,1.1,1.6,1.1,3v7.7C-399.4,1092.2-401.2,1092.2-401.2,1092.2z M-404.8,1090.5c0.9,0,1.6-0.2,2.1-0.7
	c0.5-0.5,0.8-1.2,0.8-2.1v-1l-1.5,0.1c-1.1,0-2,0.2-2.5,0.6c-0.5,0.3-0.8,0.9-0.8,1.6c0,0.5,0.2,0.9,0.5,1.2
	C-405.9,1090.4-405.4,1090.5-404.8,1090.5z"/>
<path class="st0" d="M-389.6,1088.9c0,1.1-0.4,2-1.2,2.6c-0.8,0.6-2,0.9-3.5,0.9c-1.5,0-2.7-0.2-3.7-0.7v-2.1
	c1.3,0.6,2.6,0.9,3.8,0.9c1.5,0,2.2-0.5,2.2-1.4c0-0.3-0.1-0.5-0.2-0.7c-0.2-0.2-0.4-0.4-0.8-0.6c-0.4-0.2-0.9-0.4-1.6-0.7
	c-1.3-0.5-2.2-1-2.7-1.5s-0.7-1.2-0.7-2c0-1,0.4-1.7,1.2-2.3c0.8-0.5,1.9-0.8,3.2-0.8c1.3,0,2.6,0.3,3.8,0.8l-0.8,1.8
	c-1.2-0.5-2.3-0.8-3.1-0.8c-1.3,0-1.9,0.4-1.9,1.1c0,0.4,0.2,0.7,0.5,0.9c0.3,0.2,1.1,0.6,2.2,1c0.9,0.4,1.6,0.7,2.1,1
	c0.4,0.3,0.7,0.7,1,1.1C-389.7,1087.9-389.6,1088.4-389.6,1088.9z"/>
<path class="st0" d="M-378.1,1086.4c0,1.9-0.5,3.3-1.4,4.4c-1,1-2.3,1.6-4,1.6c-1.1,0-2-0.2-2.8-0.7c-0.8-0.5-1.5-1.2-1.9-2.1
	c-0.4-0.9-0.7-2-0.7-3.1c0-1.9,0.5-3.3,1.4-4.3c1-1,2.3-1.6,4-1.6c1.7,0,3,0.5,3.9,1.6S-378.1,1084.6-378.1,1086.4z M-386.5,1086.4
	c0,2.6,1,4,2.9,4c1.9,0,2.9-1.3,2.9-4c0-2.6-1-3.9-2.9-3.9c-1,0-1.8,0.3-2.2,1C-386.2,1084.2-386.5,1085.2-386.5,1086.4z"/>
<path class="st0" d="M-366.5,1092.2h-2.4v-7c0-0.9-0.2-1.5-0.5-2c-0.4-0.4-0.9-0.7-1.7-0.7c-1,0-1.8,0.3-2.3,0.9
	c-0.5,0.6-0.7,1.6-0.7,3.1v5.7h-2.4v-11.4h1.9l0.3,1.5h0.1c0.3-0.5,0.8-1,1.5-1.3c0.6-0.3,1.3-0.4,2.1-0.4c2.7,0,4.1,1.4,4.1,4.2
	V1092.2z"/>
<path class="st0" d="M-472.4,1061.6h6.9v8.6c-1.9,0.6-3.9,1-6.2,1c-2.5,0-4.4-0.7-5.7-2.2c-1.3-1.4-2-3.5-2-6.1c0-2.6,0.7-4.6,2.2-6
	c1.5-1.4,3.5-2.2,6.2-2.2c1,0,2,0.1,2.9,0.3c0.9,0.2,1.7,0.4,2.3,0.7l-1.4,3.4c-1.2-0.6-2.4-0.9-3.8-0.9c-1.3,0-2.2,0.4-2.9,1.2
	c-0.7,0.8-1,2-1,3.5c0,1.5,0.3,2.6,0.9,3.4s1.5,1.2,2.7,1.2c0.6,0,1.2-0.1,1.8-0.2v-2.5h-2.9C-472.4,1065-472.4,1061.6-472.4,1061.6
	z"/>
<path class="st0" d="M-450,1062.6c0,2.7-0.7,4.7-2.2,6.2s-3.5,2.2-6.2,2.2h-5.2v-16h5.6c2.6,0,4.6,0.7,6,2S-450,1060.2-450,1062.6z
	 M-454.5,1062.8c0-1.5-0.3-2.6-0.9-3.3c-0.6-0.7-1.5-1.1-2.6-1.1h-1.3v9h1c1.3,0,2.3-0.4,2.9-1.1S-454.5,1064.4-454.5,1062.8z"/>
<path class="st0" d="M-442,1061.6h6.9v8.6c-1.9,0.6-3.9,1-6.2,1c-2.5,0-4.4-0.7-5.7-2.2c-1.3-1.4-2-3.5-2-6.1c0-2.6,0.7-4.6,2.2-6
	c1.5-1.4,3.5-2.2,6.2-2.2c1,0,2,0.1,2.9,0.3c0.9,0.2,1.7,0.4,2.3,0.7l-1.4,3.4c-1.2-0.6-2.4-0.9-3.8-0.9c-1.3,0-2.2,0.4-2.9,1.2
	c-0.7,0.8-1,2-1,3.5c0,1.5,0.3,2.6,0.9,3.4s1.5,1.2,2.7,1.2c0.6,0,1.2-0.1,1.8-0.2v-2.5h-2.9C-442,1065-442,1061.6-442,1061.6z"/>
<path class="st0" d="M-468.1,1092.2h-10.4v-2.2l3.7-3.8c1.1-1.1,1.8-1.9,2.2-2.4c0.3-0.4,0.6-0.8,0.7-1.2s0.2-0.8,0.2-1.2
	c0-0.6-0.2-1-0.5-1.3c-0.3-0.3-0.8-0.4-1.3-0.4c-0.6,0-1.1,0.1-1.7,0.4c-0.5,0.3-1.1,0.6-1.7,1.1l-1.7-2c0.7-0.6,1.3-1.1,1.8-1.3
	s1-0.5,1.6-0.6c0.6-0.1,1.2-0.2,1.9-0.2c0.9,0,1.8,0.2,2.5,0.5c0.7,0.3,1.3,0.8,1.7,1.4c0.4,0.6,0.6,1.3,0.6,2.1
	c0,0.7-0.1,1.3-0.4,1.9c-0.2,0.6-0.6,1.2-1.1,1.8c-0.5,0.6-1.4,1.5-2.7,2.7l-1.9,1.8v0.1h6.5V1092.2z"/>
<path class="st0" d="M-457.1,1084.7c0,2.6-0.4,4.5-1.3,5.8c-0.9,1.2-2.2,1.9-3.9,1.9c-1.7,0-3-0.6-3.9-1.9c-0.9-1.3-1.3-3.2-1.3-5.7
	c0-2.6,0.4-4.6,1.3-5.8c0.8-1.2,2.2-1.9,3.9-1.9c1.7,0,3,0.7,3.9,2C-457.6,1080.3-457.1,1082.2-457.1,1084.7z M-464.4,1084.7
	c0,1.8,0.2,3.1,0.5,3.9c0.3,0.8,0.8,1.2,1.6,1.2c0.7,0,1.3-0.4,1.6-1.2c0.3-0.8,0.5-2.1,0.5-3.9c0-1.8-0.2-3.1-0.5-3.9
	c-0.3-0.8-0.9-1.2-1.6-1.2c-0.7,0-1.3,0.4-1.6,1.2C-464.2,1081.6-464.4,1082.9-464.4,1084.7z"/>
<path class="st0" d="M-448.6,1092.2h-3.1v-8.6l0-1.4l0.1-1.5c-0.5,0.5-0.9,0.9-1.1,1l-1.7,1.4l-1.5-1.9l4.8-3.8h2.6V1092.2z"/>
<path class="st0" d="M-445.4,1085.9c0-2.9,0.6-5.1,1.9-6.6c1.2-1.4,3.1-2.2,5.6-2.2c0.8,0,1.5,0.1,2,0.2v2.5
	c-0.6-0.1-1.2-0.2-1.8-0.2c-1.1,0-2,0.2-2.6,0.5s-1.2,0.8-1.5,1.4c-0.3,0.6-0.5,1.5-0.6,2.7h0.1c0.7-1.2,1.7-1.7,3.2-1.7
	c1.3,0,2.4,0.4,3.1,1.3c0.8,0.8,1.1,2,1.1,3.5c0,1.6-0.4,2.8-1.3,3.8c-0.9,0.9-2.1,1.4-3.7,1.4c-1.1,0-2.1-0.3-2.9-0.8
	c-0.8-0.5-1.4-1.3-1.9-2.2C-445.2,1088.4-445.4,1087.2-445.4,1085.9z M-440,1089.9c0.7,0,1.2-0.2,1.5-0.7c0.4-0.5,0.5-1.1,0.5-1.9
	c0-0.7-0.2-1.3-0.5-1.7c-0.3-0.4-0.8-0.6-1.5-0.6c-0.6,0-1.2,0.2-1.6,0.6c-0.5,0.4-0.7,0.9-0.7,1.4c0,0.8,0.2,1.5,0.6,2
	C-441.2,1089.6-440.7,1089.9-440,1089.9z"/>
<path class="st13" d="M-412.1,1125.3c0,2.7-0.7,4.7-2.2,6.2c-1.5,1.4-3.5,2.2-6.2,2.2h-5.1v-16h5.5c2.6,0,4.5,0.7,5.9,2
	C-412.8,1121-412.1,1122.9-412.1,1125.3z M-416.5,1125.5c0-1.5-0.3-2.6-0.9-3.3c-0.6-0.7-1.5-1.1-2.6-1.1h-1.3v9h1
	c1.3,0,2.3-0.4,2.9-1.1C-416.9,1128.2-416.5,1127.1-416.5,1125.5z"/>
<path class="st13" d="M-404.9,1133.9c-2.1,0-3.6-0.6-4.8-1.7c-1.1-1.1-1.7-2.7-1.7-4.7c0-2.1,0.5-3.7,1.6-4.8
	c1.1-1.1,2.6-1.7,4.5-1.7c1.9,0,3.3,0.5,4.3,1.5c1,1,1.5,2.4,1.5,4.2v1.9h-7.6c0,0.7,0.3,1.2,0.8,1.6c0.5,0.4,1.1,0.6,1.9,0.6
	c0.7,0,1.4-0.1,2.1-0.2c0.6-0.1,1.3-0.4,2-0.7v3.1c-0.7,0.3-1.4,0.6-2.1,0.7C-403,1133.9-403.9,1133.9-404.9,1133.9z M-405.1,1124
	c-0.5,0-0.9,0.2-1.3,0.5c-0.3,0.3-0.5,0.8-0.6,1.5h3.7c0-0.6-0.2-1.1-0.5-1.4C-404.1,1124.2-404.6,1124-405.1,1124z"/>
<path class="st13" d="M-395.1,1133.7l-4.7-12.4h4.4l2.1,7.3c0,0,0,0.1,0,0.2c0,0.1,0,0.2,0.1,0.3c0,0.1,0,0.2,0.1,0.4
	c0,0.1,0,0.3,0,0.4h0.1c0-0.4,0.1-0.8,0.2-1.2l2.2-7.4h4.4l-4.7,12.4L-395.1,1133.7L-395.1,1133.7z"/>
<path class="st13" d="M-381.6,1133.7h-4.2v-16h9.4v3.5h-5.2v3.1h4.8v3.5h-4.8L-381.6,1133.7L-381.6,1133.7z"/>
<path class="st13" d="M-369.5,1133.9c-2.1,0-3.6-0.6-4.8-1.7s-1.7-2.7-1.7-4.7c0-2.1,0.5-3.7,1.6-4.8c1.1-1.1,2.6-1.7,4.5-1.7
	c1.9,0,3.3,0.5,4.3,1.5c1,1,1.5,2.4,1.5,4.2v1.9h-7.6c0,0.7,0.3,1.2,0.8,1.6c0.5,0.4,1.1,0.6,1.9,0.6c0.7,0,1.4-0.1,2.1-0.2
	c0.6-0.1,1.3-0.4,2-0.7v3.1c-0.7,0.3-1.4,0.6-2.1,0.7C-367.6,1133.9-368.5,1133.9-369.5,1133.9z M-369.7,1124
	c-0.5,0-0.9,0.2-1.3,0.5c-0.3,0.3-0.5,0.8-0.6,1.5h3.7c0-0.6-0.2-1.1-0.5-1.4C-368.7,1124.2-369.2,1124-369.7,1124z"/>
<path class="st13" d="M-353.5,1129.9c0,1.3-0.5,2.3-1.4,3c-0.9,0.7-2.2,1-3.9,1c-0.9,0-1.7,0-2.4-0.1c-0.7-0.1-1.4-0.3-2.1-0.5v-3.4
	c0.7,0.3,1.4,0.5,2.2,0.7c0.8,0.2,1.5,0.3,2.1,0.3c0.9,0,1.4-0.2,1.4-0.6c0-0.2-0.1-0.4-0.4-0.6c-0.3-0.2-1-0.5-2.2-1
	c-1.1-0.5-1.9-1-2.4-1.6c-0.4-0.6-0.7-1.4-0.7-2.3c0-1.2,0.4-2.1,1.3-2.7c0.9-0.6,2.1-1,3.8-1c0.8,0,1.6,0.1,2.3,0.3
	c0.7,0.2,1.5,0.4,2.2,0.8l-1.2,2.8c-0.6-0.3-1.2-0.5-1.8-0.7c-0.6-0.2-1.1-0.3-1.5-0.3c-0.7,0-1,0.2-1,0.5c0,0.2,0.1,0.4,0.4,0.5
	c0.2,0.2,0.9,0.5,2.1,0.9c0.9,0.4,1.5,0.7,1.9,1.1s0.7,0.7,0.9,1.2C-353.6,1128.7-353.5,1129.2-353.5,1129.9z"/>
<path class="st13" d="M-346.4,1130.5c0.6,0,1.3-0.1,2.1-0.4v3.1c-0.6,0.2-1.1,0.4-1.6,0.5c-0.5,0.1-1.1,0.2-1.8,0.2
	c-1.4,0-2.5-0.4-3.1-1.1c-0.6-0.7-0.9-1.8-0.9-3.3v-5.1h-1.5v-1.7l1.9-1.3l1.1-2.6h2.8v2.5h3v3.2h-3v4.8
	C-347.5,1130.1-347.2,1130.5-346.4,1130.5z"/>
<path class="st13" d="M-420.7,1151.2c0,1.3-0.5,2.4-1.5,3.2c-1,0.8-2.3,1.1-4,1.1s-3.1-0.3-4.2-0.8v-2.3c0.7,0.3,1.4,0.6,2.2,0.8
	c0.8,0.2,1.5,0.3,2.2,0.3c1,0,1.7-0.2,2.2-0.6c0.5-0.4,0.7-0.9,0.7-1.5c0-0.6-0.2-1-0.6-1.4c-0.4-0.4-1.3-0.9-2.6-1.4
	c-1.4-0.6-2.4-1.2-2.9-1.9s-0.8-1.6-0.8-2.6c0-1.3,0.4-2.3,1.3-3c0.9-0.7,2.1-1.1,3.6-1.1c1.4,0,2.9,0.3,4.3,1l-0.8,2
	c-1.3-0.6-2.5-0.8-3.6-0.8c-0.8,0-1.4,0.2-1.8,0.5c-0.4,0.3-0.6,0.8-0.6,1.4c0,0.4,0.1,0.7,0.2,1c0.2,0.3,0.4,0.5,0.8,0.8
	c0.4,0.2,1.1,0.6,2,1c1.1,0.5,1.9,0.9,2.4,1.3s0.9,0.9,1.1,1.4C-420.8,1149.9-420.7,1150.5-420.7,1151.2z"/>
<path class="st13" d="M-414.3,1155.5c-1.8,0-3.2-0.5-4.2-1.6s-1.5-2.5-1.5-4.3c0-1.9,0.5-3.3,1.4-4.4c0.9-1.1,2.2-1.6,3.8-1.6
	c1.5,0,2.7,0.5,3.6,1.4c0.9,0.9,1.3,2.2,1.3,3.8v1.3h-7.6c0,1.1,0.3,2,0.9,2.6c0.6,0.6,1.4,0.9,2.4,0.9c0.7,0,1.3-0.1,1.9-0.2
	c0.6-0.1,1.2-0.3,1.9-0.6v2c-0.6,0.3-1.2,0.5-1.8,0.6C-412.8,1155.4-413.5,1155.5-414.3,1155.5z M-414.7,1145.5
	c-0.8,0-1.4,0.2-1.9,0.7c-0.5,0.5-0.7,1.2-0.8,2.1h5.2c0-0.9-0.2-1.7-0.7-2.1C-413.3,1145.7-413.9,1145.5-414.7,1145.5z"/>
<path class="st13" d="M-401.2,1155.3l-0.5-1.6h-0.1c-0.6,0.7-1.1,1.2-1.7,1.4c-0.6,0.3-1.3,0.4-2.2,0.4c-1.1,0-2-0.3-2.6-0.9
	c-0.6-0.6-0.9-1.5-0.9-2.6c0-1.2,0.4-2.1,1.3-2.7c0.9-0.6,2.2-0.9,4-1l2-0.1v-0.6c0-0.7-0.2-1.3-0.5-1.6c-0.3-0.4-0.9-0.5-1.6-0.5
	c-0.6,0-1.1,0.1-1.7,0.3c-0.5,0.2-1.1,0.4-1.6,0.6l-0.8-1.7c0.6-0.3,1.3-0.6,2-0.7c0.7-0.2,1.4-0.3,2.1-0.3c1.5,0,2.6,0.3,3.3,1
	c0.7,0.6,1.1,1.6,1.1,3v7.7C-399.4,1155.3-401.2,1155.3-401.2,1155.3z M-404.8,1153.6c0.9,0,1.6-0.2,2.1-0.7
	c0.5-0.5,0.8-1.2,0.8-2.1v-1l-1.5,0.1c-1.1,0-2,0.2-2.5,0.6c-0.5,0.3-0.8,0.9-0.8,1.6c0,0.5,0.2,0.9,0.5,1.2
	C-405.9,1153.5-405.4,1153.6-404.8,1153.6z"/>
<path class="st13" d="M-389.6,1152c0,1.1-0.4,2-1.2,2.6c-0.8,0.6-2,0.9-3.5,0.9c-1.5,0-2.7-0.2-3.7-0.7v-2.1
	c1.3,0.6,2.6,0.9,3.8,0.9c1.5,0,2.2-0.5,2.2-1.4c0-0.3-0.1-0.5-0.2-0.7c-0.2-0.2-0.4-0.4-0.8-0.6s-0.9-0.4-1.6-0.7
	c-1.3-0.5-2.2-1-2.7-1.5s-0.7-1.2-0.7-2c0-1,0.4-1.7,1.2-2.3c0.8-0.5,1.9-0.8,3.2-0.8c1.3,0,2.6,0.3,3.8,0.8l-0.8,1.8
	c-1.2-0.5-2.3-0.8-3.1-0.8c-1.3,0-1.9,0.4-1.9,1.1c0,0.4,0.2,0.7,0.5,0.9c0.3,0.2,1.1,0.6,2.2,1c0.9,0.4,1.6,0.7,2.1,1
	c0.4,0.3,0.7,0.7,1,1.1C-389.7,1151-389.6,1151.5-389.6,1152z"/>
<path class="st13" d="M-378.1,1149.5c0,1.9-0.5,3.3-1.4,4.4c-1,1-2.3,1.6-4,1.6c-1.1,0-2-0.2-2.8-0.7c-0.8-0.5-1.5-1.2-1.9-2.1
	c-0.4-0.9-0.7-2-0.7-3.1c0-1.9,0.5-3.3,1.4-4.3c1-1,2.3-1.6,4-1.6c1.7,0,3,0.5,3.9,1.6C-378.6,1146.3-378.1,1147.7-378.1,1149.5z
	 M-386.5,1149.5c0,2.6,1,4,2.9,4c1.9,0,2.9-1.3,2.9-4c0-2.6-1-3.9-2.9-3.9c-1,0-1.8,0.3-2.2,1
	C-386.2,1147.3-386.5,1148.3-386.5,1149.5z"/>
<path class="st13" d="M-366.5,1155.3h-2.4v-7c0-0.9-0.2-1.5-0.5-2c-0.4-0.4-0.9-0.7-1.7-0.7c-1,0-1.8,0.3-2.3,0.9
	c-0.5,0.6-0.7,1.6-0.7,3.1v5.7h-2.4v-11.4h1.9l0.3,1.5h0.1c0.3-0.5,0.8-1,1.5-1.3c0.6-0.3,1.3-0.4,2.1-0.4c2.7,0,4.1,1.4,4.1,4.2
	V1155.3z"/>
<path class="st13" d="M-472.4,1124.7h6.9v8.6c-1.9,0.6-3.9,1-6.2,1c-2.5,0-4.4-0.7-5.7-2.1c-1.3-1.4-2-3.5-2-6.1
	c0-2.6,0.7-4.6,2.2-6c1.5-1.4,3.5-2.2,6.2-2.2c1,0,2,0.1,2.9,0.3c0.9,0.2,1.7,0.4,2.3,0.7l-1.4,3.4c-1.2-0.6-2.4-0.9-3.8-0.9
	c-1.3,0-2.2,0.4-2.9,1.2c-0.7,0.8-1,2-1,3.5c0,1.5,0.3,2.6,0.9,3.4c0.6,0.8,1.5,1.2,2.7,1.2c0.6,0,1.2-0.1,1.8-0.2v-2.5h-2.9
	C-472.4,1128-472.4,1124.7-472.4,1124.7z"/>
<path class="st13" d="M-450,1125.7c0,2.7-0.7,4.7-2.2,6.2s-3.5,2.2-6.2,2.2h-5.2v-16h5.6c2.6,0,4.6,0.7,6,2
	C-450.7,1121.3-450,1123.2-450,1125.7z M-454.5,1125.9c0-1.5-0.3-2.6-0.9-3.3c-0.6-0.7-1.5-1.1-2.6-1.1h-1.3v9h1
	c1.3,0,2.3-0.4,2.9-1.1C-454.8,1128.6-454.5,1127.4-454.5,1125.9z"/>
<path class="st13" d="M-442,1124.7h6.9v8.6c-1.9,0.6-3.9,1-6.2,1c-2.5,0-4.4-0.7-5.7-2.1c-1.3-1.4-2-3.5-2-6.1c0-2.6,0.7-4.6,2.2-6
	c1.5-1.4,3.5-2.2,6.2-2.2c1,0,2,0.1,2.9,0.3c0.9,0.2,1.7,0.4,2.3,0.7l-1.4,3.4c-1.2-0.6-2.4-0.9-3.8-0.9c-1.3,0-2.2,0.4-2.9,1.2
	c-0.7,0.8-1,2-1,3.5c0,1.5,0.3,2.6,0.9,3.4c0.6,0.8,1.5,1.2,2.7,1.2c0.6,0,1.2-0.1,1.8-0.2v-2.5h-2.9
	C-442,1128-442,1124.7-442,1124.7z"/>
<path class="st13" d="M-468.1,1155.3h-10.4v-2.2l3.7-3.8c1.1-1.1,1.8-1.9,2.2-2.4c0.3-0.4,0.6-0.8,0.7-1.2c0.1-0.4,0.2-0.8,0.2-1.2
	c0-0.6-0.2-1-0.5-1.3c-0.3-0.3-0.8-0.4-1.3-0.4c-0.6,0-1.1,0.1-1.7,0.4c-0.5,0.3-1.1,0.6-1.7,1.1l-1.7-2c0.7-0.6,1.3-1.1,1.8-1.3
	s1-0.5,1.6-0.6c0.6-0.1,1.2-0.2,1.9-0.2c0.9,0,1.8,0.2,2.5,0.5c0.7,0.3,1.3,0.8,1.7,1.4c0.4,0.6,0.6,1.3,0.6,2.1
	c0,0.7-0.1,1.3-0.4,1.9c-0.2,0.6-0.6,1.2-1.1,1.8c-0.5,0.6-1.4,1.5-2.7,2.7l-1.9,1.8v0.1h6.5V1155.3z"/>
<path class="st13" d="M-457.1,1147.8c0,2.6-0.4,4.5-1.3,5.8c-0.9,1.2-2.2,1.9-3.9,1.9c-1.7,0-3-0.6-3.9-1.9
	c-0.9-1.3-1.3-3.2-1.3-5.7c0-2.6,0.4-4.6,1.3-5.8c0.8-1.2,2.2-1.9,3.9-1.9c1.7,0,3,0.7,3.9,2
	C-457.6,1143.4-457.1,1145.3-457.1,1147.8z M-464.4,1147.8c0,1.8,0.2,3.1,0.5,3.9c0.3,0.8,0.8,1.2,1.6,1.2c0.7,0,1.3-0.4,1.6-1.2
	c0.3-0.8,0.5-2.1,0.5-3.9c0-1.8-0.2-3.1-0.5-3.9c-0.3-0.8-0.9-1.2-1.6-1.2c-0.7,0-1.3,0.4-1.6,1.2
	C-464.2,1144.7-464.4,1146-464.4,1147.8z"/>
<path class="st13" d="M-448.6,1155.3h-3.1v-8.6l0-1.4l0.1-1.5c-0.5,0.5-0.9,0.9-1.1,1l-1.7,1.4l-1.5-1.9l4.8-3.8h2.6V1155.3z"/>
<path class="st13" d="M-445.4,1148.9c0-2.9,0.6-5.1,1.9-6.6c1.2-1.4,3.1-2.2,5.6-2.2c0.8,0,1.5,0.1,2,0.2v2.5
	c-0.6-0.1-1.2-0.2-1.8-0.2c-1.1,0-2,0.2-2.6,0.5s-1.2,0.8-1.5,1.4c-0.3,0.6-0.5,1.5-0.6,2.7h0.1c0.7-1.2,1.7-1.7,3.2-1.7
	c1.3,0,2.4,0.4,3.1,1.3c0.8,0.8,1.1,2,1.1,3.5c0,1.6-0.4,2.8-1.3,3.8c-0.9,0.9-2.1,1.4-3.7,1.4c-1.1,0-2.1-0.3-2.9-0.8
	c-0.8-0.5-1.4-1.3-1.9-2.2C-445.2,1151.5-445.4,1150.3-445.4,1148.9z M-440,1152.9c0.7,0,1.2-0.2,1.5-0.7c0.4-0.5,0.5-1.1,0.5-1.9
	c0-0.7-0.2-1.3-0.5-1.7c-0.3-0.4-0.8-0.6-1.5-0.6c-0.6,0-1.2,0.2-1.6,0.6c-0.5,0.4-0.7,0.9-0.7,1.4c0,0.8,0.2,1.5,0.6,2
	C-441.2,1152.7-440.7,1152.9-440,1152.9z"/>
</svg>
